<?xml version="1.0" encoding="utf-8"?>
<!-- Generator: Adobe Illustrator 25.2.1, SVG Export Plug-In . SVG Version: 6.00 Build 0)  -->
<svg version="1.1" id="Layer_1" xmlns="http://www.w3.org/2000/svg" xmlns:xlink="http://www.w3.org/1999/xlink" x="0px" y="0px"
	 viewBox="0 0 212 50.2" style="enable-background:new 0 0 212 50.2;" xml:space="preserve">
<style type="text/css">
	.st0{fill:#231F20;}
</style>
<g>
	<g>
		<path class="st0" d="M6.1,18.6V2.2H0V0h14.8v2.2H8.6v16.4H6.1z"/>
		<path class="st0" d="M13.3,18.6L20.5,0h2.7l7.6,18.6h-2.8L25.8,13H18l-2,5.6H13.3z M18.7,11H25l-1.9-5.2C22.5,4.3,22,3,21.7,2
			c-0.2,1.2-0.6,2.4-1,3.6L18.7,11z"/>
		<path class="st0" d="M32.6,18.6V0h3.7l4.4,13.2c0.4,1.2,0.7,2.1,0.9,2.8c0.2-0.7,0.5-1.7,1-3l4.5-13h3.3v18.6H48V3l-5.4,15.6h-2.2
			L35,2.8v15.9H32.6z"/>
		<path class="st0" d="M52.3,18.6L59.5,0h2.7l7.6,18.6H67L64.8,13H57l-2,5.6H52.3z M57.7,11H64l-1.9-5.2C61.5,4.3,61,3,60.8,2
			c-0.2,1.2-0.6,2.4-1,3.6L57.7,11z"/>
		<path class="st0" d="M71.8,18.6V0H80c1.7,0,2.9,0.2,3.8,0.5s1.6,0.9,2.1,1.8c0.5,0.8,0.8,1.8,0.8,2.8c0,1.3-0.4,2.4-1.3,3.3
			c-0.9,0.9-2.2,1.5-4,1.7c0.7,0.3,1.1,0.6,1.5,0.9c0.7,0.7,1.4,1.5,2,2.5l3.2,5.1h-3.1l-2.5-3.9c-0.7-1.1-1.3-2-1.8-2.6
			c-0.5-0.6-0.9-1-1.3-1.2c-0.4-0.2-0.7-0.4-1.1-0.5c-0.3-0.1-0.7-0.1-1.4-0.1h-2.9v8.3H71.8z M74.2,8.2h5.3c1.1,0,2-0.1,2.6-0.3
			c0.6-0.2,1.1-0.6,1.4-1.1c0.3-0.5,0.5-1.1,0.5-1.7c0-0.9-0.3-1.6-1-2.2c-0.6-0.6-1.6-0.9-3-0.9h-5.9V8.2z"/>
	</g>
	<g>
		<path class="st0" d="M10.1,42.5v-2.2l7.9,0v6.9c-1.2,1-2.5,1.7-3.7,2.2c-1.3,0.5-2.6,0.7-4,0.7c-1.8,0-3.5-0.4-5-1.2
			s-2.6-1.9-3.4-3.4c-0.8-1.5-1.1-3.1-1.1-5c0-1.8,0.4-3.5,1.1-5.1C2.7,34,3.8,32.8,5.2,32c1.4-0.8,3.1-1.1,4.9-1.1
			c1.3,0,2.6,0.2,3.7,0.7c1.1,0.4,1.9,1,2.6,1.8c0.6,0.8,1.1,1.8,1.4,3L15.5,37c-0.3-0.9-0.6-1.7-1-2.2c-0.4-0.5-1-1-1.8-1.3
			c-0.8-0.3-1.6-0.5-2.6-0.5C9,33,8,33.2,7.2,33.5c-0.8,0.3-1.5,0.8-2,1.4S4.3,36.1,4,36.7c-0.5,1.2-0.7,2.4-0.7,3.7
			c0,1.7,0.3,3,0.9,4.2c0.6,1.1,1.4,1.9,2.5,2.5c1.1,0.5,2.3,0.8,3.5,0.8c1.1,0,2.1-0.2,3.1-0.6c1-0.4,1.8-0.8,2.3-1.3v-3.5H10.1z"
			/>
		<path class="st0" d="M21.7,49.8V31.2h13.5v2.2h-11v5.7h10.3v2.2H24.1v6.3h11.4v2.2H21.7z"/>
		<path class="st0" d="M39,49.8V31.2h6.4c1.4,0,2.6,0.1,3.3,0.3c1.1,0.2,2,0.7,2.7,1.3c1,0.8,1.7,1.9,2.2,3.2
			c0.5,1.3,0.7,2.8,0.7,4.4c0,1.4-0.2,2.7-0.5,3.8s-0.8,2-1.3,2.7c-0.5,0.7-1.1,1.3-1.7,1.7s-1.4,0.7-2.2,0.9
			c-0.9,0.2-1.9,0.3-3,0.3H39z M41.5,47.6h4c1.2,0,2.2-0.1,2.9-0.3c0.7-0.2,1.3-0.6,1.7-1c0.6-0.6,1-1.4,1.4-2.4
			c0.3-1,0.5-2.2,0.5-3.6c0-1.9-0.3-3.4-1-4.5c-0.6-1-1.4-1.7-2.3-2.1c-0.7-0.3-1.7-0.4-3.2-0.4h-3.9V47.6z"/>
		<path class="st0" d="M57.8,49.8V31.2h13.5v2.2h-11v5.7h10.3v2.2H60.3v6.3h11.4v2.2H57.8z"/>
		<path class="st0" d="M80.5,49.8l-7.2-18.6h2.7l4.8,13.5c0.4,1.1,0.7,2.1,1,3c0.3-1,0.6-2,1-3l5-13.5h2.5L83,49.8H80.5z"/>
		<path class="st0" d="M88.5,49.8l7.2-18.6h2.7l7.6,18.6h-2.8l-2.2-5.6h-7.8l-2,5.6H88.5z M93.9,42.2h6.3L98.3,37
			c-0.6-1.6-1-2.9-1.3-3.9c-0.2,1.2-0.6,2.4-1,3.6L93.9,42.2z"/>
		<path class="st0" d="M107.9,49.8V31.2h2.5l9.8,14.6V31.2h2.4v18.6H120l-9.8-14.6v14.6H107.9z"/>
		<path class="st0" d="M127.1,49.8V31.2h2.5v18.6H127.1z"/>
		<path class="st0" d="M133.1,43.9l2.3-0.2c0.1,0.9,0.4,1.7,0.8,2.3c0.4,0.6,1,1.1,1.9,1.4c0.8,0.4,1.8,0.6,2.9,0.6
			c0.9,0,1.8-0.1,2.5-0.4c0.7-0.3,1.3-0.7,1.6-1.1c0.4-0.5,0.5-1,0.5-1.6c0-0.6-0.2-1.1-0.5-1.5c-0.3-0.4-0.9-0.8-1.7-1.1
			c-0.5-0.2-1.6-0.5-3.3-0.9s-2.9-0.8-3.6-1.2c-0.9-0.5-1.6-1-2-1.7c-0.4-0.7-0.7-1.5-0.7-2.3c0-0.9,0.3-1.8,0.8-2.6
			s1.3-1.4,2.3-1.9c1-0.4,2.2-0.6,3.4-0.6c1.4,0,2.6,0.2,3.7,0.7c1.1,0.4,1.9,1.1,2.4,2c0.6,0.9,0.9,1.8,0.9,2.9l-2.4,0.2
			c-0.1-1.2-0.6-2.1-1.3-2.7s-1.8-0.9-3.2-0.9c-1.5,0-2.6,0.3-3.3,0.8c-0.7,0.5-1,1.2-1,2c0,0.7,0.2,1.2,0.7,1.7
			c0.5,0.4,1.7,0.9,3.7,1.3c2,0.5,3.4,0.8,4.1,1.2c1.1,0.5,1.9,1.1,2.4,1.9s0.8,1.6,0.8,2.6c0,1-0.3,1.9-0.9,2.8
			c-0.6,0.9-1.4,1.6-2.4,2c-1.1,0.5-2.3,0.7-3.6,0.7c-1.7,0-3.1-0.2-4.2-0.7c-1.1-0.5-2-1.2-2.7-2.2
			C133.5,46.2,133.1,45.1,133.1,43.9z"/>
		<path class="st0" d="M151.4,49.8V31.2h2.5v7.6h9.7v-7.6h2.5v18.6h-2.5v-8.8h-9.7v8.8H151.4z"/>
		<path class="st0" d="M175.4,49.8l-7.2-18.6h2.7l4.8,13.5c0.4,1.1,0.7,2.1,1,3c0.3-1,0.6-2,1-3l5-13.5h2.5l-7.3,18.6H175.4z"/>
		<path class="st0" d="M187.8,49.8V31.2h2.5v18.6H187.8z"/>
		<path class="st0" d="M194.5,49.8V31.2h2.5v16.4h9.2v2.2H194.5z"/>
		<path class="st0" d="M209.5,49.8V31.2h2.5v18.6H209.5z"/>
	</g>
</g>
</svg>
